<?xml version="1.0" encoding="UTF-8"?>
<!DOCTYPE svg PUBLIC "-//W3C//DTD SVG 1.1//EN" "http://www.w3.org/Graphics/SVG/1.1/DTD/svg11.dtd">
<!-- Creator: CorelDRAW SE -->
<svg xmlns="http://www.w3.org/2000/svg" xml:space="preserve" width="269.805mm" height="100.734mm" version="1.1" style="shape-rendering:geometricPrecision; text-rendering:geometricPrecision; image-rendering:optimizeQuality; fill-rule:evenodd; clip-rule:evenodd"
viewBox="0 0 8087 3019"
 xmlns:xlink="http://www.w3.org/1999/xlink">
 <defs>
  <style type="text/css">
   <![CDATA[
    .fil0 {fill:#2B2A29}
    .fil1 {fill:#2B2A29;fill-rule:nonzero}
   ]]>
  </style>
 </defs>
 <g id="Warstwa_x0020_1">
  <metadata id="CorelCorpID_0Corel-Layer"/>
  <g id="_648724968">
   <path class="fil0" d="M939 202c846,-116 1440,370 2277,539 31,-388 703,-810 886,-732 83,36 116,98 77,269 -30,131 -101,282 -219,384 -168,145 -432,180 -670,139 -29,138 307,175 406,146 20,-4 44,20 42,34 -3,20 -6,30 -110,31 -960,383 -1246,829 -1398,1230 -110,289 -265,1003 732,575 467,-208 971,-565 1502,-1099 -40,14 -51,-92 -24,-122 2,-12 97,-110 152,-107 43,-3 66,15 39,65 -15,53 -75,98 -108,137 188,39 285,151 297,320 99,-42 315,-209 328,-245 60,-72 87,-20 68,23 -9,25 -62,104 -59,129 12,30 139,-247 206,-307 34,-37 94,-44 84,11 1,41 -34,219 -34,244 -5,9 -9,50 24,25 20,2 137,-150 162,-207 22,-45 81,-48 62,14 -52,80 -72,218 -14,258 66,50 129,42 190,27 77,-5 310,-164 338,-189 68,-61 83,-124 166,-117 37,-1 68,24 38,63 -23,27 -44,30 -105,37 -46,37 -39,123 -9,153 33,49 119,70 164,62 112,-9 210,-52 277,-83 65,-23 167,-79 201,-102 -11,7 -156,-95 -147,-171 -4,-49 59,-108 124,-76 73,33 38,103 59,108 50,-74 121,-56 123,-25 6,119 -82,120 -109,158 87,14 242,-28 305,-43 143,-40 225,-73 442,-125 319,-52 386,105 383,220 -1,74 -18,133 -98,167 -53,11 -63,12 -70,-5 -4,1 -6,-30 59,-13 37,9 109,-63 80,-178 -22,-116 -120,-154 -240,-155 -197,-1 -388,79 -523,113 -103,21 -234,43 -368,36 -81,48 -289,158 -433,192 -82,19 -179,20 -239,-18 -83,-55 -77,-170 -68,-180 -35,41 -238,174 -374,199 -107,17 -190,14 -243,-39 -29,-43 -20,-176 -20,-175 3,19 -128,145 -134,150 -21,19 -72,19 -76,-41 -3,-48 40,-196 50,-246 2,-42 -14,-23 -27,-9 -16,5 -143,254 -156,256 -34,56 -61,69 -79,68 -79,1 12,-160 -17,-142 -76,81 -248,188 -288,201 -4,218 -101,402 -267,503 -4,2 -149,98 -313,77 -126,-16 -186,-106 -146,-217 38,-104 142,-196 229,-237 236,-101 307,-71 433,-127 2,-177 -112,-280 -280,-300 -379,400 -1011,936 -1542,1168 -697,302 -963,-2 -796,-601 110,-435 552,-999 1409,-1288 -195,-7 -318,-71 -336,-224 -957,-222 -1153,-476 -1954,-563 -482,-28 -813,155 -1034,443 -72,95 -150,212 -192,312 6,9 14,28 14,44 0,27 -11,48 -24,48 -13,0 -24,-21 -24,-48 0,-17 5,-33 11,-41 41,-101 334,-696 928,-781zm3001 -128c-244,96 -648,432 -661,676 40,28 262,21 377,12 192,-55 426,-160 510,-533 24,-147 -30,-214 -226,-155zm626 1455c-12,0 -86,72 -94,105 -15,31 11,48 22,48 12,0 105,-111 105,-125 16,-15 15,-62 -33,-28zm1769 188c-13,10 -20,21 -17,24 2,4 15,-2 27,-12 12,-11 19,-22 17,-25 -3,-3 -15,2 -27,13zm623 -15c58,-88 92,-73 84,-30 0,22 -79,114 -111,114 -71,-8 -196,-158 -92,-221 83,-1 78,108 77,116 -9,78 3,95 42,21zm-2201 356c-8,128 -31,196 -110,307 -77,86 -161,168 -370,201 -142,10 -248,-67 -105,-253 179,-206 449,-212 585,-255z"/>
   <g>
    <path class="fil1" d="M5504 2405c2,0 3,1 4,1 2,0 3,0 4,0 7,0 16,-2 25,-6 9,-4 18,-10 26,-18 14,-12 25,-25 33,-38 8,-14 12,-26 12,-38 0,-4 -1,-8 -2,-12 -2,-4 -4,-8 -7,-12 -9,7 -22,20 -37,40 -15,20 -35,47 -58,83zm-7 9c-23,35 -49,61 -76,79 -27,17 -56,26 -87,26 -21,0 -37,-4 -49,-12 -12,-8 -18,-19 -18,-32 0,-8 2,-14 6,-19 4,-4 10,-7 16,-7 5,0 9,2 12,5 3,3 5,7 5,11 0,5 -1,8 -4,11 -3,3 -7,4 -13,4 0,0 -2,0 -4,-1 -2,0 -3,0 -5,0 0,0 -1,0 -1,1 0,0 0,1 0,2 0,7 4,14 14,19 9,6 21,8 35,8 23,0 45,-7 67,-23 22,-16 49,-44 80,-84 -2,-3 -4,-6 -5,-9 -2,-3 -2,-6 -2,-10 0,-7 3,-14 8,-20 6,-6 12,-9 18,-9 2,0 4,0 5,1 1,1 2,2 2,3 0,2 -3,4 -9,6 -2,1 -3,1 -4,2 -4,1 -7,3 -9,6 -2,4 -3,7 -3,11 0,3 1,5 1,6 1,2 3,4 4,5l5 -6c47,-58 82,-96 105,-114 -11,-8 -22,-14 -35,-17 -13,-4 -27,-6 -42,-6 -23,0 -47,4 -71,12 -23,8 -45,19 -66,34 -16,13 -29,26 -38,39 -9,13 -13,26 -13,38 0,10 3,18 10,24 7,6 16,9 27,9 15,0 31,-6 48,-18 17,-11 33,-27 48,-47 8,-10 14,-21 19,-33 5,-11 8,-17 9,-17 1,0 1,1 2,1 0,1 0,2 0,4 0,7 -1,15 -5,24 -3,10 -7,19 -12,28 -14,21 -30,38 -48,50 -18,11 -38,17 -58,17 -15,0 -27,-4 -36,-12 -9,-7 -13,-17 -13,-30 0,-13 5,-27 14,-42 10,-14 23,-28 41,-41 21,-16 44,-28 69,-36 24,-8 49,-13 74,-13 16,0 31,3 45,7 14,5 27,12 39,21 8,-5 14,-9 20,-12 6,-3 10,-5 11,-5 2,0 3,0 4,1 0,0 1,1 1,2 0,1 -4,4 -11,8 -7,5 -13,9 -19,13 6,5 10,12 12,19 3,7 4,16 4,25 0,14 -3,27 -9,40 -6,12 -16,23 -29,32 -9,8 -19,13 -30,17 -12,4 -23,6 -34,6 -3,0 -7,0 -10,-1 -4,0 -8,-1 -12,-1zm168 13c0,0 1,0 2,-1 1,0 2,0 3,0 3,0 6,0 8,1 3,1 4,1 4,2 0,1 -1,2 -3,5 -3,2 -5,4 -6,6 -4,6 -8,12 -10,17 -3,6 -4,11 -4,15 0,3 1,6 3,8 1,1 4,2 6,2 3,0 7,0 10,-2 4,-2 8,-5 13,-10 2,-1 5,-4 8,-7 4,-3 7,-5 8,-5 1,0 2,0 2,1 1,0 1,1 1,2 0,1 -1,3 -2,4 -1,2 -4,4 -9,8 -8,7 -15,12 -21,15 -5,2 -10,4 -14,4 -7,0 -12,-2 -15,-6 -3,-4 -5,-9 -5,-16 0,-2 0,-5 1,-8 1,-4 1,-7 3,-11 -11,11 -22,21 -32,32 -9,11 -18,21 -27,33 -3,0 -6,1 -9,1 -2,0 -5,0 -7,0 -2,0 -4,0 -5,-1 -2,0 -2,-1 -2,-1 0,-2 3,-7 10,-14 5,-5 8,-9 11,-12 13,-16 23,-27 27,-34 5,-7 7,-13 7,-16 0,-1 0,-2 0,-3 0,0 -1,0 -1,0 -4,0 -8,1 -13,4 -5,3 -11,7 -20,14 -2,2 -5,4 -9,7 -4,4 -7,6 -8,6 -1,0 -2,0 -3,-1 0,0 -1,-1 -1,-2 0,-1 2,-3 4,-6 3,-2 7,-6 14,-12 9,-8 18,-14 27,-19 8,-5 15,-7 19,-7 4,0 6,1 8,3 2,2 3,5 3,9 0,3 0,6 -1,9 -1,4 -3,7 -5,12l30 -26zm141 -56c0,-3 2,-6 4,-8 2,-2 5,-3 9,-3 4,0 8,1 10,3 2,2 4,5 4,8 0,4 -2,7 -4,9 -3,2 -6,3 -10,3 -4,0 -7,-1 -9,-3 -2,-2 -4,-5 -4,-9zm-73 77c-7,4 -14,9 -21,14 -7,5 -11,8 -12,8 0,0 -1,0 -2,-1 0,0 0,-1 0,-2 0,-1 2,-4 6,-8l1 0 11 -8c14,-11 25,-19 34,-24 8,-5 15,-8 19,-8 6,0 10,1 13,1 4,1 5,2 5,3 0,1 -5,6 -15,14 -10,8 -19,17 -27,25 -11,11 -19,20 -25,26 -5,7 -8,12 -8,15 0,2 1,3 2,4 1,1 2,1 4,1 5,0 12,-2 22,-7 10,-6 21,-13 33,-21 4,-4 9,-7 15,-12 5,-5 8,-7 9,-7 1,0 1,0 2,1 0,1 1,1 1,2 0,2 -6,8 -18,17l-4 4c-12,10 -24,18 -36,24 -12,5 -21,8 -29,8 -5,0 -9,-1 -13,-4 -3,-3 -5,-7 -5,-11 0,-7 3,-14 10,-23 6,-9 15,-19 28,-31zm168 17c8,-9 15,-17 18,-22 4,-6 6,-10 6,-13 0,0 0,0 -1,-1 0,0 -1,0 -2,0 -5,0 -10,3 -15,9 -6,6 -8,12 -8,18 0,1 0,3 0,4 1,2 1,4 2,5zm-6 6c-2,-3 -4,-6 -4,-8 -1,-2 -2,-5 -2,-7 0,-9 4,-17 11,-24 7,-8 14,-12 23,-12 3,0 6,1 8,3 1,2 2,4 2,7 0,4 -1,9 -5,15 -4,6 -11,15 -20,25 2,2 4,3 6,3 3,1 5,2 8,2 8,0 16,-3 23,-8 8,-5 12,-8 12,-8 1,0 2,0 2,1 1,0 1,1 1,2 0,3 -4,7 -13,12 -9,6 -18,8 -28,8 -3,0 -6,0 -9,-1 -3,-1 -7,-2 -10,-3 -16,13 -30,23 -42,30 -12,6 -23,9 -33,9 -6,0 -11,-1 -14,-4 -3,-3 -5,-7 -5,-13 0,-5 2,-11 7,-18 4,-7 10,-14 18,-21 3,-2 6,-5 10,-8 12,-11 19,-17 19,-19 0,-1 -1,-1 -2,-2 -1,-1 -2,-1 -3,-1 -2,0 -6,1 -11,4 -5,3 -12,6 -18,11 -6,4 -12,9 -18,14 -7,5 -11,8 -12,8 -1,0 -1,0 -2,-1 0,-1 -1,-1 -1,-2 0,-2 2,-5 7,-8 4,-4 10,-9 18,-14 10,-8 19,-13 27,-17 9,-4 15,-6 20,-6 4,0 8,2 10,4 2,2 3,5 3,9 0,9 -11,23 -34,42l-2 2c-7,6 -12,11 -15,15 -3,4 -5,7 -5,9 0,2 1,4 2,5 1,1 3,1 6,1 7,0 16,-3 28,-9 12,-7 24,-16 37,-27zm95 17l42 -44c2,-2 3,-4 4,-5 1,-2 1,-4 1,-5 0,-1 0,-2 -1,-3 -1,-1 -2,-1 -3,-1 -5,0 -10,1 -17,5 -7,3 -13,8 -21,14 -11,10 -21,20 -28,30 -8,11 -12,18 -12,23 0,2 1,3 2,4 1,1 2,2 4,2 3,0 8,-2 13,-5 5,-4 11,-9 16,-15zm2 8c-8,7 -14,13 -21,16 -6,4 -11,6 -16,6 -5,0 -9,-2 -12,-6 -3,-4 -4,-9 -4,-16 0,-8 2,-16 5,-24 4,-7 10,-14 19,-21 10,-10 21,-17 33,-23 12,-5 23,-8 32,-8 6,0 9,1 12,3 2,2 4,5 4,10 2,-2 4,-4 6,-6 2,-2 5,-4 8,-5 1,0 2,-1 4,-1 2,0 3,0 4,0 4,0 7,0 9,1 2,1 3,2 3,4 0,1 -3,4 -9,9 -3,3 -5,5 -7,7 -16,15 -29,28 -38,39 -10,11 -14,18 -14,22 0,2 0,3 1,4 0,0 2,0 3,0 6,0 14,-2 24,-7 11,-5 22,-12 33,-21 5,-4 10,-8 16,-13 6,-5 9,-7 10,-7 1,0 2,0 2,1 1,0 1,1 1,2 0,2 -7,9 -20,20l-1 1c-14,10 -27,19 -39,25 -12,6 -23,9 -30,9 -6,0 -10,-1 -14,-4 -3,-4 -5,-8 -5,-13 0,-1 0,-2 0,-2 0,-1 0,-2 1,-2zm138 -55c-8,5 -16,12 -25,19 -8,8 -13,12 -15,12 -1,0 -1,-1 -2,-1 0,-1 0,-2 0,-3 0,-3 15,-15 44,-38l15 -11 16 -18 -32 0 6 -6 32 0 34 -43c2,-1 3,-2 5,-3 1,-1 3,-1 5,-1 4,0 7,0 10,2 2,1 3,2 3,4 0,0 0,1 0,2 0,1 -1,1 -1,2l-32 37 37 0 -6 6 -36 0 -42 49c-10,12 -18,22 -22,30 -5,7 -7,14 -7,19 0,3 0,5 1,6 1,2 3,2 5,2 6,0 14,-2 24,-7 10,-5 22,-13 34,-22 5,-3 9,-8 15,-12 5,-5 8,-7 9,-7 1,0 2,0 2,1 1,0 1,1 1,2 0,1 -1,3 -4,6 -2,3 -8,8 -18,16 -14,10 -26,19 -38,25 -12,5 -22,8 -30,8 -5,0 -10,-1 -13,-4 -3,-3 -5,-8 -5,-13 0,-8 2,-17 7,-26 5,-10 13,-21 23,-33zm84 42c-1,2 -2,5 -2,7 -1,2 -1,4 -1,6 0,4 1,7 4,9 2,2 6,3 10,3 8,0 17,-3 28,-8 11,-6 23,-14 36,-24 3,-3 7,-7 12,-11 5,-4 8,-6 9,-6 1,0 1,0 2,0 0,1 1,2 1,3 0,1 -2,4 -5,7 -3,3 -9,8 -17,15 -12,11 -25,19 -37,25 -12,5 -23,8 -32,8 -8,0 -15,-2 -21,-8 -5,-5 -8,-12 -8,-22 0,-8 3,-16 8,-24 6,-9 13,-17 23,-24 9,-6 17,-11 25,-14 7,-3 15,-5 21,-5 6,0 10,1 13,3 2,2 3,5 3,10 0,9 -7,19 -20,29 -14,10 -31,17 -52,21zm6 -11c16,-3 30,-9 41,-16 11,-8 17,-15 17,-21 0,-3 0,-4 -1,-5 -1,-1 -3,-2 -5,-2 -6,0 -13,4 -22,12 -9,7 -19,18 -30,32zm221 31c-16,-5 -31,-8 -43,-10 -13,-3 -25,-4 -35,-4 -6,0 -11,1 -14,2 -4,2 -6,4 -6,6 0,5 4,8 12,10 9,3 21,4 36,4 8,0 16,-1 24,-2 9,-1 17,-3 26,-6zm163 -129c29,-10 54,-22 75,-36 21,-14 39,-29 53,-47 4,-6 8,-12 11,-17 2,-6 4,-10 4,-14 0,-4 -1,-6 -3,-8 -2,-2 -5,-2 -10,-2 -16,0 -35,10 -57,32 -23,21 -47,52 -73,92zm-11 15c-21,33 -42,59 -62,76 -20,18 -41,30 -64,37 10,3 18,5 26,6 8,2 15,2 21,2 15,0 30,-2 44,-8 13,-5 29,-14 46,-27 2,-2 6,-5 10,-9 5,-5 9,-7 11,-7 1,0 1,0 2,1 0,0 0,1 0,2 0,1 -1,3 -4,6 -3,3 -9,9 -18,16 -17,13 -32,22 -45,27 -14,5 -28,8 -44,8 -10,0 -20,-1 -29,-3 -11,-2 -21,-5 -32,-9 -10,4 -20,7 -31,9 -11,2 -22,3 -34,3 -18,0 -32,-2 -42,-6 -9,-3 -14,-8 -14,-15 0,-6 3,-10 9,-13 5,-3 14,-4 25,-4 11,0 24,1 38,4 15,3 30,7 46,13 17,-8 34,-20 51,-36 17,-16 35,-37 53,-62l-49 10 -4 1c-10,2 -15,3 -17,3 -2,0 -4,-1 -5,-1 -1,-1 -2,-2 -2,-3 0,-3 11,-6 31,-9 20,-4 39,-8 56,-13 36,-49 69,-86 97,-110 28,-24 51,-37 71,-37 7,0 13,2 16,6 4,3 6,8 6,15 0,19 -15,40 -43,62 -30,23 -69,45 -120,65zm65 99l42 -44c2,-2 3,-4 4,-5 1,-2 1,-4 1,-5 0,-1 0,-2 -1,-3 -1,-1 -2,-1 -4,-1 -4,0 -9,1 -16,5 -7,3 -14,8 -21,14 -11,10 -21,20 -28,30 -8,11 -12,18 -12,23 0,2 1,3 2,4 1,1 2,2 4,2 3,0 7,-2 13,-5 5,-4 10,-9 16,-15zm2 8c-8,7 -15,13 -21,16 -6,4 -12,6 -16,6 -6,0 -10,-2 -12,-6 -3,-4 -5,-9 -5,-16 0,-8 2,-16 6,-24 4,-7 10,-14 18,-21 11,-10 22,-17 34,-23 12,-5 23,-8 32,-8 5,0 9,1 12,3 2,2 4,5 4,10 2,-2 4,-4 6,-6 2,-2 5,-4 7,-5 1,0 3,-1 5,-1 1,0 3,0 4,0 4,0 7,0 9,1 2,1 3,2 3,4 0,1 -3,4 -9,9 -3,3 -5,5 -7,7 -16,15 -29,28 -39,39 -9,11 -13,18 -13,22 0,2 0,3 1,4 0,0 1,0 3,0 6,0 14,-2 24,-7 11,-5 22,-12 33,-21 5,-4 10,-8 16,-13 6,-5 9,-7 10,-7 1,0 2,0 2,1 1,0 1,1 1,2 0,2 -7,9 -20,20l-1 1c-14,10 -27,19 -39,25 -13,6 -23,9 -30,9 -6,0 -11,-1 -14,-4 -3,-4 -5,-8 -5,-13 0,-1 0,-2 0,-2 0,-1 0,-2 1,-2zm199 -32c9,-9 15,-17 19,-22 4,-5 5,-9 5,-12 0,0 0,-1 0,-1 -1,-1 -2,-1 -2,-1 -6,0 -11,3 -16,9 -5,6 -8,12 -8,19 0,1 0,2 0,4 1,1 1,3 2,4zm-61 -24c-8,6 -17,13 -26,20 -8,7 -13,11 -14,11 -1,0 -2,0 -2,-1 0,0 -1,-1 -1,-2 0,-2 5,-7 14,-15 9,-7 24,-19 45,-34l105 -123c2,-2 3,-3 5,-4 1,-1 3,-1 5,-1 4,0 7,1 9,1 3,1 4,3 4,4 0,1 -1,3 -3,5 0,0 0,1 0,1l-116 135c-16,18 -26,31 -32,40 -5,9 -8,16 -8,22 0,2 1,3 3,5 1,1 3,2 5,2 7,0 15,-3 26,-10 11,-6 23,-14 36,-25 -2,-3 -3,-6 -4,-9 -1,-2 -1,-5 -1,-7 0,-9 3,-17 10,-24 7,-7 14,-11 23,-11 3,0 6,1 8,3 2,2 3,4 3,7 0,4 -2,9 -6,15 -4,6 -10,14 -20,25 2,1 4,2 6,3 2,1 4,1 6,1 9,0 18,-3 25,-8 8,-5 12,-7 12,-7 1,0 2,0 2,0 1,1 1,1 1,2 0,3 -4,8 -13,13 -8,5 -18,8 -27,8 -4,0 -7,-1 -10,-1 -3,-1 -6,-2 -9,-4 -16,13 -30,23 -42,30 -12,7 -23,10 -32,10 -6,0 -10,-2 -13,-5 -4,-3 -5,-7 -5,-12 0,-9 2,-18 7,-27 5,-10 13,-21 24,-33z"/>
    <path class="fil1" d="M6924 2483c-1,2 -2,5 -2,7 -1,2 -1,4 -1,6 0,4 1,7 3,9 3,2 6,3 11,3 7,0 17,-3 28,-8 11,-6 23,-14 36,-24 3,-3 7,-7 12,-11 4,-4 7,-6 8,-6 1,0 2,0 2,0 1,1 1,2 1,3 0,1 -1,4 -5,7 -3,3 -8,8 -17,15 -12,11 -24,19 -36,25 -12,5 -23,8 -32,8 -9,0 -16,-2 -21,-8 -5,-5 -8,-12 -8,-22 0,-8 3,-16 8,-24 5,-9 13,-17 23,-24 9,-6 17,-11 25,-14 7,-3 14,-5 21,-5 6,0 10,1 12,3 3,2 4,5 4,10 0,9 -7,19 -21,29 -14,10 -31,17 -51,21zm5 -11c17,-3 31,-9 42,-16 11,-8 17,-15 17,-21 0,-3 -1,-4 -2,-5 0,-1 -2,-2 -4,-2 -6,0 -14,4 -23,12 -8,7 -18,18 -30,32zm122 -31c-7,5 -16,12 -25,19 -8,8 -13,12 -15,12 0,0 -1,-1 -1,-1 -1,-1 -1,-2 -1,-3 0,-2 5,-6 14,-14 9,-8 24,-19 45,-35l110 -123c1,-2 3,-3 4,-4 1,0 3,-1 5,-1 3,0 6,1 8,2 3,1 4,2 4,3 0,1 0,2 -1,3 0,1 -1,2 -3,3l-126 148c-10,11 -17,21 -21,29 -5,9 -8,15 -8,20 0,3 1,5 2,7 1,1 3,2 5,2 6,0 13,-2 20,-6 8,-3 18,-9 29,-17 7,-5 14,-11 22,-17 7,-6 11,-9 12,-9 1,0 2,0 2,0 1,1 1,2 1,3 0,2 -6,9 -20,20l-1 1c-14,10 -26,19 -39,25 -12,6 -22,9 -30,9 -5,0 -10,-1 -13,-4 -3,-3 -5,-8 -5,-13 0,-7 2,-15 7,-25 4,-10 11,-21 19,-34z"/>
   </g>
  </g>
 </g>
</svg>
